<svg width="24" height="24" xmlns="http://www.w3.org/2000/svg" fill="none">

  <g>
    <title>Layer 1</title>
    <path id="svg_1" fill="#504678" d="m10.2614,9.29352c0.4623,0.317 0.7386,0.84148 0.7386,1.40208l0,11.1654c0,0.4828 -0.5412,0.7679 -0.9393,0.4949l-5.3221,-3.6494c-0.46229,-0.317 -0.7386,-0.8415 -0.7386,-1.4021l0,-11.18344c0,-0.68005 0.40527,-1.29466 1.03034,-1.56255l5.13326,-2.19999c0.396,-0.16968 0.8364,0.12074 0.8364,0.55149l0,0.57202c0,0.31521 -0.1851,0.60104 -0.4727,0.72999l-3.66589,1.64348c-0.42748,0.19166 -0.48023,0.7774 -0.09386,1.04234l3.49385,2.39578zm7.0425,3.29308c0.4077,0 0.6112,0.5053 0.3231,0.8011l-3.0067,3.1138c-0.2235,0.2288 -0.2235,0.6008 0,0.8296l0.4838,0.4973c0.2235,0.2288 0.5852,0.2288 0.8081,0l4.4074,-4.5492c0.9071,-0.9307 0.9071,-2.4399 0.0006,-3.37051l-4.5898,-4.73711c-0.2229,-0.22879 -0.5846,-0.22879 -0.8081,0l-0.4844,0.49726c-0.2229,0.22941 -0.2229,0.60081 0,0.8296l3.1982,3.31042c0.2881,0.29574 0.084,0.80104 -0.3231,0.80104l-4.7416,0c-0.3159,0 -0.5714,0.2629 -0.5714,0.5866l0,0.8035c0,0.3237 0.2555,0.5866 0.5714,0.5866l4.7325,0zm-10.37108,-3.26473c-0.39873,-0.26582 -0.93282,0.02001 -0.93282,0.49923l0,6.9691c0,0.5684 0.28407,1.0992 0.75701,1.4145l1.31017,0.8734c0.39873,0.2658 0.93282,-0.02 0.93282,-0.4992l0,-6.9691c0,-0.5684 -0.28407,-1.0992 -0.75701,-1.4145l-1.31017,-0.87343z" clip-rule="evenodd" fill-rule="evenodd"/>
    <path d="m6.37928,9.52979c0.04888,0 0.09453,0.00705 0.1955,0.04888c0.14279,0.05915 0.2481,0.07905 0.29325,0.09775c0.06386,0.02645 0.04888,0.04888 0.09775,0.04888c0,0 0.04888,0 0.04888,0.04888c0,0 0.04888,0 0.04888,0c0,0 0.01432,-0.03456 0.04888,0c0.03456,0.03456 0,0.04888 0.04888,0.04888c0,0 0,0 0.04888,0.04888c0,0 0.01432,-0.03456 0.04888,0c0.03456,0.03456 0.04888,0.04888 0.04888,0.04888c0.04888,0 0.04888,0 0.04888,0.04888c0,0 0.04888,0 0.04888,0c0.04888,0 0.04888,0 0.04888,0.04888c0,0 0.04888,0 0.04888,0c0,0 0.01432,0.01432 0.04888,0.04888c0.03456,0.03456 0.09775,0 0.09775,0c0.04888,0.04888 0.09775,0.04888 0.09775,0.04888c0.04888,0 0.04888,0.04888 0.04888,0.04888c0.09775,0.04888 0.14663,0.04888 0.14663,0.04888c0,0.04888 0.04888,0.04888 0.04888,0.04888c0.04888,0 0.04888,0 0.09775,0.04888c0,0 0.04888,0 0.04888,0c0,0 0.04888,0.04888 0.04888,0.04888c0,0 0.01432,0.01432 0.04888,0.04888c0.03456,0.03456 0.06319,-0.03456 0.09775,0c0.03456,0.03456 0.01432,0.01432 0.04888,0.04888c0.03456,0.03456 -0.01498,0.0713 0.04888,0.09775c0.04516,0.0187 0.01432,0.01432 0.04888,0.04888c0.03456,0.03456 0.04888,0 0.09775,0.04888c0,0 0,0.04888 0,0.04888c0.04888,0.04888 0.04888,0.09775 0.04888,0.09775c0,0.04888 0.02242,0.03389 0.04888,0.09775c0.0187,0.04516 0,0.09775 0,0.09775c0,0.09775 0,0.09775 0,0.14663c0,0 0,0.04888 0,0.04888c0,0 0,0 0,0.04888c0,0 0,0 0,0c-0.04888,0 -0.04888,0 -0.09775,0c-0.14663,0 -0.1294,-0.04753 -0.34213,-0.09775c-0.04757,-0.01123 -0.15035,-0.03017 -0.1955,-0.04888c-0.06386,-0.02645 -0.10147,-0.12792 -0.14663,-0.14663c-0.06386,-0.02645 -0.06319,-0.06319 -0.09775,-0.09775c-0.03456,-0.03456 -0.04888,0 -0.04888,0c-0.04888,-0.04888 -0.04888,-0.04888 -0.04888,-0.04888c-0.04888,-0.04888 -0.04888,-0.04888 -0.04888,-0.04888c-0.04888,-0.04888 -0.04888,-0.04888 -0.09775,-0.04888c0,0 0,0 -0.04888,-0.04888c0,0 -0.04888,0 -0.04888,0c-0.04888,-0.04888 -0.04888,-0.04888 -0.14663,-0.04888c0,0 -0.09775,0 -0.14663,-0.04888c0,0 -0.04888,0 -0.04888,0c-0.04888,-0.04888 -0.09775,-0.04888 -0.1955,-0.04888c0,0 -0.10519,-0.01147 -0.1955,-0.04888c-0.06386,-0.02645 -0.09775,-0.04888 -0.09775,-0.04888c-0.04888,0 -0.04888,0 -0.04888,0c0,0 -0.04888,-0.04888 -0.04888,-0.04888c0,0 0,0 -0.04888,0c0,0 0,0 0,0c0,0 -0.04888,0 -0.04888,0c0,0 0,0 0,0c0,-0.04888 -0.04888,-0.04888 -0.04888,-0.04888c0,0 0.03456,-0.01432 0,-0.04888c-0.03456,-0.03456 -0.04888,0 -0.04888,-0.04888c0,0 0,0 -0.04888,-0.04888c0,0 0,0 0,0c0,-0.04888 0.06319,-0.01432 0.09775,-0.04888c0.03456,-0.03456 0.06004,0.00724 0.1955,-0.04888c0.06386,-0.02645 0.04951,-0.0567 0.09775,-0.04888c0.15256,0.02476 0.25303,0.01687 0.48876,0.09775c0.20675,0.07094 0.27827,0.12018 0.34213,0.14663c0.04516,0.0187 0.16094,-0.03456 0.1955,0c0.03456,0.03456 0,0.04888 0.04888,0.04888c0,0 0.04888,0 0.04888,0c0.14663,0.04888 0.1955,0.04888 0.1955,0.04888c0,0 0.04888,0 0.04888,0.04888c0,0 0.01431,-0.03456 0.04887,0c0.03456,0.03456 0.04888,0.04888 0.04888,0.09775c0,0 0.01432,0.01432 0.04888,0.04888c0.03456,0.03456 0.01432,0.01432 0.04888,0.04888c0.03456,0.03456 0.04888,0 0.04888,0.04888c0,0 0.01432,-0.03456 0.04888,0c0.03456,0.03456 -0.0187,0.0526 0,0.09775c0.02645,0.06386 0.04888,0.04888 0.09775,0.09775c0,0 0,0.04888 0,0.04888c0.04888,0 0.04888,0.04888 0.09775,0.09775c0,0 0.04888,0.09775 0.04888,0.09775c0.09775,0.1955 0.07905,0.19922 0.09775,0.24438c0.02645,0.06386 0.0713,0.08277 0.09775,0.14663c0.0187,0.04516 0,0.04888 0,0.24438c0,0.04888 0,0.14663 0,0.14663c0,0.04888 0.04888,0.14663 0.04888,0.14663c0,0.04888 0,0.04888 0,0.04888c0,0.04888 0,0.04888 0,0.04888c0,0 -0.04888,0.04888 -0.04888,0.04888c0,0 0,0 -0.04888,0c0,0 -0.20982,0.03456 -0.24438,0c-0.03456,-0.03456 -0.17243,-0.23284 -0.39101,-0.34213c-0.04371,-0.02186 -0.01891,-0.04485 -0.14663,-0.09775c-0.04516,-0.0187 -0.08917,-0.00478 -0.14663,-0.09775c-0.0257,-0.04158 0,-0.04888 -0.04888,-0.09775c0,0 0,0 -0.04888,-0.04888c0,0 0,0 0,-0.04888c0,0 -0.04888,0 -0.04888,0c0,0 0,0 0,0c-0.04888,0 -0.04888,-0.04888 -0.04888,-0.04888c-0.04888,0 -0.08277,-0.02242 -0.14663,-0.04888c-0.13547,-0.05611 -0.1955,-0.04888 -0.29325,-0.04888c0,0 -0.06319,0.03456 -0.09775,0c-0.03456,-0.03456 -0.09775,-0.04888 -0.09775,-0.04888c0,0 -0.04888,0 -0.09775,0c0,0 -0.04888,0 -0.09775,0c0,0 -0.04888,0 -0.09775,0c0,0 -0.09775,0.04888 -0.09775,0.04888c0,0 -0.04888,0 -0.04888,0c0,0 0,0 -0.04888,0c0,0 0,0.04888 0,0.04888c0,0 -0.04888,0 -0.04888,0c0,0 0,0.04888 -0.04888,0.04888c0,0 0,0 0,0c-0.04888,0 -0.04888,0 -0.04888,0.04888c0,0 0,0 0,0c0,0 0,0.04888 0,0.09775c0,0.04888 0.02377,0.08914 0.04888,0.1955c0.01123,0.04757 -0.03456,0.06319 0,0.09775c0.03456,0.03456 0.09775,0.09775 0.09775,0.09775c0,0 0.04888,0.04888 0.04888,0.04888c0.04888,0 0.04888,0 0.04888,0c0,0.04888 0.04888,0.04888 0.1955,0.04888c0,0 0.1955,0 0.1955,0c0.14663,0 0.18689,-0.02377 0.29325,-0.04888c0.04757,-0.01123 0.1955,0 0.1955,0c0.04888,0 0.04888,0 0.04888,0c0,0 0.04888,0 0.04888,0.04888c0,0 0.04888,0 0.09775,0.04888c0,0 0.06319,-0.03456 0.09775,0c0.03456,0.03456 0.06319,0.01432 0.09775,0.04888c0.03456,0.03456 0.04888,0.09775 0.09775,0.09775c0,0 0.03389,0.0713 0.09775,0.09775c0.04515,0.0187 0.04887,0.04888 0.09775,0.04888c0,0 0.04888,0 0.09775,0.04888c0,0 0.04888,0 0.04888,0c0.04888,0.04888 0.04888,0.04888 0.04888,0.04888c0.04888,0 0.16094,0.01432 0.1955,0.04888c0.03456,0.03456 0.04888,0.04888 0.04888,0.04888c0,0 0.01432,0.01432 0.04888,0.04888c0.03456,0.03456 0.04888,0 0.09775,0.04888c0,0 0.04888,0.04888 0.04888,0.04888c0,0 0.02242,-0.01498 0.04888,0.04888c0.0187,0.04516 0,0.04888 0,0.09775c0,0.04888 0.04888,0.04888 0.04888,0.09775c0,0 0,0 0,0.04888c0,0 0,0 0,0c0,0.04888 0,0.09775 0,0.09775c0,0 0.03456,0.01432 0,0.04888c-0.03456,0.03456 -0.09775,0.04888 -0.24438,0.04888c-0.04888,0 -0.1955,0 -0.43988,0c-0.04888,0 -0.10684,0.01503 -0.1955,-0.04888c-0.05607,-0.04042 -0.1955,-0.1955 -0.1955,-0.1955c-0.04888,-0.04888 -0.1955,-0.09775 -0.1955,-0.09775c-0.14663,-0.04888 -0.14663,-0.04888 -0.1955,-0.04888c0,0 -0.04888,-0.04888 -0.04888,-0.04888c-0.04888,0 -0.04888,0 -0.24438,-0.09775c0,0 -0.14663,-0.04888 -0.1955,-0.04888c-0.04888,0 -0.04888,-0.04888 -0.09775,-0.04888c0,0 -0.04888,0 -0.09775,0c0,0 -0.03389,0.02242 -0.09775,0.04888c-0.04516,0.0187 -0.09775,0 -0.09775,0c-0.04888,0 -0.04888,0.04888 -0.09775,0.04888c0,0 0,0.04888 0,0.04888c-0.04888,0.09775 -0.04888,0.09775 -0.04888,0.14663c0,0.14663 0,0.14663 0,0.34213c0,0.04888 -0.0187,0.0526 0,0.09775c0.02645,0.06386 0.04888,0.04888 0.04888,0.09775c0,0 0,0 0.04888,0.04888c0,0 -0.01322,0.01851 0.04888,0.04888c0.35398,0.17313 0.48282,0.07299 0.63539,0.09775c0.14473,0.02349 0.1955,0 0.24438,0c0,0 0.09775,-0.04888 0.24438,-0.04888c0,0 0.04888,0 0.04888,0c0.04888,0 0.04888,0 0.09775,0c0.04888,0 0.10203,-0.01007 0.34213,0.09775c0.0997,0.04477 0.24438,0.09775 0.24438,0.09775c0.04888,0 0.03389,0.02242 0.09775,0.04888c0.04516,0.0187 0.15441,0.02985 0.29325,0.09775c0.15831,0.07742 0.20982,0.06319 0.24438,0.09775c0.03456,0.03456 0.04888,0.04888 0.04888,0.04888c0,0.04888 0.01432,0.01432 0.04888,0.04888c0.03456,0.03456 0,0.09775 0,0.14663c0,0.04888 -0.04888,0.09775 -0.04888,0.14663c0,0.04888 -0.04888,0.09775 -0.04888,0.14663c0,0.04888 -0.04888,0.04888 -0.04888,0.09775c0,0 -0.04888,0 -0.04888,0c-0.04888,0.04888 -0.06778,0.09372 -0.1955,0.14663c-0.09031,0.03741 -0.11207,0.03456 -0.14663,0c-0.03456,-0.03456 -0.22342,-0.17984 -0.43988,-0.29325c-0.27381,-0.14346 -0.65268,-0.18037 -1.12414,-0.34213c-0.31012,-0.10641 -0.48014,-0.26815 -0.58651,-0.29325c-0.04757,-0.01123 -0.14663,-0.04888 -0.34213,-0.04888c-0.09775,0 -0.11207,-0.01432 -0.14663,-0.04888c-0.03456,-0.03456 -0.04888,0 -0.09775,0c-0.04888,0 -0.09775,0 -0.14663,0.04888c0,0 -0.08917,0.00478 -0.14663,0.09775c-0.05139,0.08315 -0.04888,0.14663 -0.04888,0.24438c0,0.04888 0.04888,0.09775 0.04888,0.14663c0,0 0,0.04888 0.04888,0.09775c0.04888,0.04888 0.06319,0.06319 0.09775,0.09775c0.03456,0.03456 0.09799,0.09294 0.14663,0.09775c0.24801,0.02456 0.24438,0.04888 0.29325,0.04888c0.24438,0 0.44051,0.00783 0.48876,0c0.15256,-0.02476 0.24438,-0.04888 0.29325,-0.04888c0.14663,0 0.1955,0 0.1955,0c0.1955,0 0.34213,0.04888 0.34213,0.04888c0.04888,0 0.13164,0.0713 0.1955,0.09775c0.04516,0.0187 0.13164,0.02242 0.1955,0.04888c0.04516,0.0187 0.08914,0.07264 0.1955,0.09775c0.04757,0.01123 0.14359,0.07323 0.43988,0.09775c0.04871,0.00403 0.09775,0.04888 0.14663,0.04888c0,0 0.04888,0 0.04888,0.04888c0,0 0.04888,0 0.04888,0.04888c0,0 0.04888,0 0.04888,0c0,0.04888 0,0.04888 0,0.09775c0,0 0,0.09775 0,0.14663c0,0 0,0.04888 0,0.04888c0,0.04888 -0.01432,0.01432 -0.04888,0.04888c-0.03456,0.03456 0,0.04888 0,0.04888c-0.09775,0 -0.09787,0.00487 -0.1955,0c-0.49059,-0.02447 -1.22331,-0.18767 -1.51515,-0.24438c-0.44234,-0.08595 -0.57153,-0.12018 -0.63539,-0.14663c-0.04516,-0.0187 -0.04888,0 -0.09775,0c-0.14663,0 -0.1955,0 -0.24438,0c-0.04888,0 -0.09775,0.09775 -0.1955,0.14663c0,0 0,0 -0.04888,0.04888c0,0 -0.03456,0.01432 0,0.04888c0.03456,0.03456 0.03017,0.00372 0.04888,0.04888c0.02645,0.06386 0.10098,0.14065 0.1955,0.1955c0.15242,0.08845 0.2382,0.11283 0.34213,0.14663c0.28273,0.09194 0.43988,0.04887 0.58651,0.04887c0.24438,0 0.34213,0 0.68426,0c0.48876,0 0.7301,0.02435 1.02639,0.04888c0.29226,0.02419 0.48425,0.07313 0.68426,0.09775c0.14553,0.01792 0.34323,-0.01791 0.48876,0c0.20001,0.02462 0.25869,0.01431 0.29325,0.04887c0.03456,0.03456 0,0.04888 0.04888,0.04888c0,0 0,0 0,0.04888c0,0 0,0 0,0.04888c0,0.04888 0.02159,0.07426 -0.14663,0.1955c-0.17732,0.12781 -0.286,0.19526 -0.78201,0.24438c-0.04864,0.00482 -0.29349,-0.00482 -0.34213,0c-0.24801,0.02456 -0.34213,0.04888 -0.39101,0.04888c-0.09775,0 -0.143,-0.02432 -0.39101,-0.04888c-0.29183,-0.0289 -0.43988,-0.04888 -0.58651,-0.04888c-0.29325,0 -0.39101,-0.04888 -0.68426,-0.04888c-0.04888,0 -0.2445,-0.00347 -0.29325,0c-0.34473,0.0245 -0.39101,0.09775 -0.63539,0.09775c-0.04888,0 -0.18153,0.05922 -0.29325,0.1955c-0.04382,0.05345 -0.08748,0.29709 -0.14663,0.43988c-0.04182,0.10097 -0.04888,0.09775 0,0.09775c0,0 -0.01187,0.04824 0.29325,0.09775c0.28947,0.04697 0.53763,0 0.92864,0c0.34213,0 0.63539,0 0.83089,0c0.29325,0 0.43395,-0.05481 0.53763,0.04888c0.03456,0.03456 0.04888,0.04888 0.04888,0.04888c0.04888,0 0.01432,0.01431 0.04888,0.04888c0.03456,0.03456 0.09775,0 0.14663,0.04888c0,0 0,0 0.04888,0c0,0 0,0.04888 0.04888,0.04888c0,0 0,0 0.04888,0c0,0 0.04888,0.04888 0.04888,0.04888c0,0 0.04888,0 0.04888,0c0,0.04888 0.01432,0.06319 0.04888,0.09775c0.03456,0.03456 0.04888,0.04888 0.04888,0.04888c0,0 0,0.04888 0,0.04888c0,0 0.01432,0.01431 0.04888,0.04888c0.06912,0.06912 0,0.09775 0,0.14663c0,0 0,0 0,0c0,0.04888 0.04888,0.04888 0.04888,0.04888c0,0 0.04888,-0.04888 0.04888,-0.14663c0,-0.04888 0.01194,-0.24511 0,-0.34213c-0.02462,-0.20001 -0.09775,-0.39101 -0.09775,-0.53763c0,0 0,-0.04888 0,-0.04888c0,-0.04888 0,-0.04888 0,-0.04888c0,0 0,0 0,0.04888c0,0.14663 0.00806,0.48909 0,0.58651c-0.02452,0.29629 -0.04888,0.39101 -0.04888,0.53763c0,0.04888 -0.04668,0.17347 -0.09775,0.34213c-0.01416,0.04678 -0.02377,0.08914 -0.04888,0.19551c-0.02246,0.09514 0,0.09775 0,0.14663c0,0 0,0.04888 0,0.04888c0,0 0,0 0,0c0,0 -0.04888,0 -0.04888,0c-0.04888,-0.04888 -0.18971,-0.10705 -0.34213,-0.1955c-0.09452,-0.05486 -0.13164,-0.12018 -0.1955,-0.14663c-0.04516,-0.0187 -0.1955,-0.24438 -0.24438,-0.29325c0,0 -0.12459,-0.14444 -0.29325,-0.1955c-0.04678,-0.01416 -0.1081,-0.0349 -0.24438,-0.14663c-0.05345,-0.04382 -0.08914,-0.07264 -0.1955,-0.09775c-0.04757,-0.01123 -0.04888,-0.04888 -0.09775,-0.04888c-0.04888,0 -0.09775,0 -0.14663,-0.04888c0,0 -0.09775,0 -0.09775,0c0,-0.04888 0.00923,-0.0203 0.04888,-0.04888c0.12538,-0.09037 0.18229,-0.25556 0.39101,-0.48876c0.27659,-0.30902 0.72448,-0.75959 0.92864,-1.17302c0.1849,-0.37443 0.26006,-0.97393 0.34213,-1.36852c0.06054,-0.29107 0.09168,-0.48895 0.09775,-0.58651c0.02449,-0.39329 0.09178,-0.58688 0.09775,-0.63539c0.02462,-0.20001 0.09775,-0.29325 0.09775,-0.58651c0,-0.04888 0,-0.34213 0,-0.63539l0,-0.53763l0,-0.14663" id="svg_6" stroke="#504678" fill="none"/>
    <path d="m6.03715,9.48092c0,0 0,-0.04888 0,-0.04888c0,0 0,0 0,0c0,0.04888 -0.01566,0.19677 0,0.29325c0.02476,0.15256 0.04888,0.1955 0.04888,0.1955c0.04888,0 0.04888,0.04888 0.04888,0.04888c0,0.04888 0,0.04888 0,0.09775c0,0 0,0.04888 0,0.09775c0,0.04888 0,0.04888 0,0.14663c0,0.04888 0,0.04888 0,0.09775c0,0 0,0 0,0c0,0 0,0 0,0c0,-0.04888 0,-0.24438 0,-0.68426c0,-0.24438 0,-0.48876 0,-0.73314c0,-0.14663 0,-0.1955 0,-0.24438c0,0 0,-0.04888 0,-0.04888c0,0 0,-0.04888 0,-0.04888c0,0 0,-0.04888 0,-0.04888c0,0 0.04888,0.04888 0.04888,0.04888c0,0.1955 0.04888,0.29325 0.04888,0.53763c0,0.1955 0,0.29325 0,0.63539c0,0.1955 -0.02412,0.23844 -0.04888,0.39101c-0.00783,0.04824 0,0.09775 0,0.09775c0,0.04888 -0.02242,0.03389 -0.04888,0.09775c-0.0187,0.04516 0,0.04888 0,0.09775c0,0.04888 0,0.04888 0,0.09775c0,0 0.02242,0.03389 0.04888,0.09775c0.05611,0.13547 0.03583,0.24615 0.04888,0.29325c0.07607,0.27465 0.13557,0.4807 0.39101,0.58651c0.04516,0.0187 0.45762,0.10621 0.73314,0.63539c0.02257,0.04335 0.25527,0.23089 0.43988,0.39101c0.05222,0.04529 0.41657,0.47324 0.58651,0.78201c0.2321,0.42172 0.30473,0.939 0.83089,1.6129c0.04254,0.05448 0.1955,0.29325 0.24438,0.34213c0,0 0.02377,0.04026 0.04888,0.14663c0.01123,0.04757 0.04888,0.24438 0.04888,0.39101c0,0.04888 0.02412,0.04294 0.04888,0.1955c0.00783,0.04824 0,0.09775 0,0.09775c0,0.04888 0,0.04888 0,0.14663c0,0 0,0.04888 0,0.04888c0,0.04888 0,0.04888 0,0.04888c-0.04888,-0.04888 -0.15894,-0.43404 -0.29325,-0.73314c-0.21565,-0.48021 -0.44947,-0.97443 -0.58651,-1.4174c-0.10516,-0.33993 -0.15421,-0.93401 -0.24438,-1.46627c-0.06732,-0.39738 -0.20019,-1.172 -0.29325,-1.6129c-0.05147,-0.24384 -0.12559,-0.54413 -0.1955,-0.73314c-0.07584,-0.205 -0.04734,-0.26452 -0.14663,-0.43988c-0.03406,-0.06015 -0.09775,-0.09775 -0.14663,-0.24438c0,0 -0.04888,-0.04888 -0.09775,-0.1955c0,0 -0.04888,-0.04888 -0.04888,-0.09775l0,0l0,0" id="svg_7" stroke="#504678" fill="none"/>
  </g>
</svg>
